HIERARCHY
ROOT root
{
	OFFSET	0	13.1	24.9
	CHANNELS 6  Xposition Yposition Zposition Xrotation Yrotation Zrotation
	JOINT spine_1
	{
		OFFSET	0	9.99999	0
		CHANNELS 3  Xrotation Yrotation Zrotation
		JOINT spine_2
		{
			OFFSET	0	112	-10
			CHANNELS 3  Xrotation Yrotation Zrotation
			JOINT spine_3
			{
				OFFSET	0	206.5	19.3
				CHANNELS 3  Xrotation Yrotation Zrotation
				JOINT spine_4
				{
					OFFSET	0	110.4	14.6
					CHANNELS 3  Xrotation Yrotation Zrotation
					JOINT neck_1
					{
						OFFSET	0	71.8	-50.3
						CHANNELS 3  Xrotation Yrotation Zrotation
						JOINT neck_2
						{
							OFFSET	0	86.2	-25.8
							CHANNELS 3  Xrotation Yrotation Zrotation
							JOINT head_ee
							{
								OFFSET	0	179.8	-8.7
								CHANNELS 3  Xrotation Yrotation Zrotation
								End Site
								{
									OFFSET	1	0	0
								}
							}
						}
					}
					JOINT left_clavicle
					{
						OFFSET	-43.2	22.4	-70.8
						CHANNELS 3  Xrotation Yrotation Zrotation
						JOINT left_shoulder
						{
							OFFSET	-93.9	-5.79999	48.7
							CHANNELS 3  Xrotation Yrotation Zrotation
							JOINT left_elbow
							{
								OFFSET	-291.4	-30.8	15.2
								CHANNELS 3  Xrotation Yrotation Zrotation
								JOINT left_lowarm_twist
								{
									OFFSET	-110.7	-3.89999	13.6
									CHANNELS 3  Xrotation Yrotation Zrotation
									JOINT left_hand
									{
										OFFSET	-110.7	-3.89999	13.6
										CHANNELS 3  Xrotation Yrotation Zrotation
										JOINT left_ee
										{
											OFFSET	-80.8	-5.10001	12.1
											CHANNELS 3  Xrotation Yrotation Zrotation
											End Site
											{
												OFFSET	1	0	0
											}
										}
									}
								}
							}
						}
					}
					JOINT right_clavicle
					{
						OFFSET	43.2	22.4	-70.8
						CHANNELS 3  Xrotation Yrotation Zrotation
						JOINT right_shoulder
						{
							OFFSET	93.9	-5.79999	48.7
							CHANNELS 3  Xrotation Yrotation Zrotation
							JOINT right_elbow
							{
								OFFSET	291.4	-30.8	15.2
								CHANNELS 3  Xrotation Yrotation Zrotation
								JOINT right_lowarm_twist
								{
									OFFSET	110.7	-3.89999	13.6
									CHANNELS 3  Xrotation Yrotation Zrotation
									JOINT right_hand
									{
										OFFSET	110.7	-3.89999	13.6
										CHANNELS 3  Xrotation Yrotation Zrotation
										JOINT right_ee
										{
											OFFSET	80.8	-5.10001	12.1
											CHANNELS 3  Xrotation Yrotation Zrotation
											End Site
											{
												OFFSET	1	0	0
											}
										}
									}
								}
							}
						}
					}
				}
			}
		}
	}
	JOINT left_hip
	{
		OFFSET	-82.8	-127.5	0.300001
		CHANNELS 3  Xrotation Yrotation Zrotation
		JOINT left_knee
		{
			OFFSET	-28.2	-396.7	2.2
			CHANNELS 3  Xrotation Yrotation Zrotation
			JOINT left_ankle
			{
				OFFSET	-11.7	-411.3	35.4
				CHANNELS 3  Xrotation Yrotation Zrotation
				JOINT left_toes
				{
					OFFSET	0	-60	-88.6
					CHANNELS 3  Xrotation Yrotation Zrotation
					JOINT left_foot_ee
					{
						OFFSET	-22.5	-16.5	-42.2
						CHANNELS 3  Xrotation Yrotation Zrotation
						End Site
						{
							OFFSET	1	0	0
						}
					}
				}
			}
		}
	}
	JOINT right_hip
	{
		OFFSET	82.8	-127.5	0.300001
		CHANNELS 3  Xrotation Yrotation Zrotation
		JOINT right_knee
		{
			OFFSET	28.2	-396.7	2.2
			CHANNELS 3  Xrotation Yrotation Zrotation
			JOINT right_ankle
			{
				OFFSET	11.7	-411.3	35.4
				CHANNELS 3  Xrotation Yrotation Zrotation
				JOINT right_toes
				{
					OFFSET	0	-60	-88.6
					CHANNELS 3  Xrotation Yrotation Zrotation
					JOINT right_foot_ee
					{
						OFFSET	22.5	-16.5	-42.2
						CHANNELS 3  Xrotation Yrotation Zrotation
						End Site
						{
							OFFSET	1	0	0
						}
					}
				}
			}
		}
	}
}
MOTION
Frames: 6
Frame Time: 0.02
813.808211816 612.734 -1824.82325093 10.5832947762 16.6101137343 7.33702861714 -1.74744 -0.769116 -4.563 -1.73599 -0.477517 -4.60258 -1.68592 0.636458 -4.58335 -1.71521 -0.0945805 -4.62627 -2.98439 8.31724 0.390308 -2.89281 14.8175 1.60386 -0.0 0.0 -0.0 9.74257 20.9108 16.8962 -3.85522 -12.2709 56.5952 2.37937 -49.6809 1.10158 -24.7112 -1.49056 2.76111 0.0513896 0.0419686 0.360815 -0.0 0.0 -0.0 1.81986 26.0907 -0.951066 -24.0831 11.2444 -73.3246 0.588284 16.2473 -0.0839736 -83.6338 8.28073 -5.21609 -5.44525 -21.3919 24.1793 0.0 0.0 0.0 -2.97484 -24.6092 -8.84643 -17.9152 0.314627 2.72006 31.8881 27.6609 -4.39699 4.2312 -0.0 -0.0 -0.0 0.0 -0.0 6.66277 47.2725 -23.8916 -21.6966 -0.271622 -3.29857 18.3399 -22.5256 2.61475 -32.6658 0.0 0.0 0.0 0.0 0.0 
802.18803688 616.768 -1831.56440049 10.361834597 16.2783754058 7.61734937289 -1.75787 -0.782446 -4.6996 -1.74571 -0.482157 -4.73974 -1.6934 0.665438 -4.71755 -1.72443 -0.0870851 -4.76335 -3.54464 8.07447 -0.217479 -3.46097 14.8955 1.00131 -0.0 0.0 -0.0 10.3853 20.9784 17.9006 -4.04746 -11.0808 55.1877 2.45885 -50.6065 1.1626 -24.659 -1.4862 2.75603 -0.130891 -2.27439 -1.84001 -0.0 0.0 -0.0 1.60845 26.2722 -0.473084 -25.535 11.4997 -73.6018 0.662902 18.1793 -0.106058 -83.5489 8.27006 -5.21792 -5.10991 -21.2613 22.0982 0.0 0.0 0.0 -3.00818 -25.731 -8.50484 -19.7906 0.298071 3.00733 35.5263 24.8443 -4.71308 3.95284 -0.0 -0.0 -0.0 0.0 -0.0 5.01843 48.8788 -22.1584 -14.118 -0.319326 -2.13758 22.1194 -19.6461 3.06482 -31.9225 0.0 0.0 0.0 0.0 0.0 
793.400645637 619.523 -1832.13706965 10.6846029157 18.1535367943 7.76062714687 -1.72553 -0.83057 -4.80891 -1.71283 -0.523253 -4.85188 -1.65553 0.649094 -4.83669 -1.68814 -0.121975 -4.87843 -5.61236 7.81582 -0.470268 -5.57584 14.7695 0.946759 -0.0 0.0 -0.0 10.3662 20.6282 17.9348 -3.55029 -10.6363 55.3211 2.66854 -52.8841 1.3273 -25.6491 -1.56969 2.85159 0.115863 -4.03995 -0.93037 -0.0 0.0 -0.0 1.37351 26.0661 0.0152322 -26.2684 11.7787 -74.3856 0.723547 19.7189 -0.125753 -83.753 8.29569 -5.21351 -5.07014 -21.573 21.6167 0.0 0.0 0.0 -2.53803 -23.1751 -8.67586 -20.6141 0.287833 3.13326 33.1576 27.1168 -4.52388 3.15019 -0.0 -0.0 -0.0 0.0 -0.0 5.00247 48.1682 -22.358 -8.49229 -0.255391 -1.2771 22.8834 -21.3758 3.18285 -31.7743 0.0 0.0 0.0 0.0 0.0 
770.397296613 620.099 -1838.4972808 12.0695729574 21.9270149698 7.2508268087 -1.91849 -0.968016 -5.12242 -1.90413 -0.64055 -5.17344 -1.83052 0.627533 -5.17503 -1.86782 -0.196496 -5.20914 -5.45899 7.58361 -0.996653 -5.41439 14.7211 0.351697 -0.0 0.0 -0.0 10.8673 21.1772 18.6306 -2.51908 -9.64908 54.8484 2.59725 -52.1354 1.27073 -25.7412 -1.57755 2.8604 -0.397808 -3.75561 -4.27013 -0.0 0.0 -0.0 1.47186 25.5797 -0.249674 -27.6785 11.9251 -74.3369 0.747677 20.3235 -0.134015 -84.2616 8.35949 -5.20213 -4.80644 -19.8577 21.1387 0.0 0.0 0.0 -5.65018 -22.8545 -9.23757 -22.069 0.265322 3.35537 38.7508 24.001 -5.01569 3.21221 -0.0 -0.0 -0.0 0.0 -0.0 6.76523 50.3799 -20.2705 -1.27181 -0.0502738 -0.188697 24.358 -18.4136 3.32469 -31.5018 0.0 0.0 0.0 0.0 0.0 
760.506629389 619.246 -1836.47879367 13.0414572656 24.3212333505 6.28987468681 -1.88096 -1.01099 -5.1021 -1.86674 -0.684724 -5.15589 -1.78947 0.576524 -5.16908 -1.82665 -0.245933 -5.19524 -7.05332 7.32602 -0.858555 -7.0479 14.2332 0.636003 -0.0 0.0 -0.0 10.8256 19.7917 18.836 -2.20628 -10.8009 55.7735 2.64309 -52.6197 1.30704 -25.9157 -1.59245 2.87706 -0.351988 -3.37423 -3.79737 -0.0 0.0 -0.0 1.20256 25.5072 0.327285 -28.0404 11.4158 -74.8119 0.742096 20.184 -0.132082 -84.2102 8.35306 -5.2033 -4.74925 -19.7154 20.8676 0.0 0.0 0.0 -6.12225 -19.9894 -9.11649 -21.2904 0.27807 3.23658 38.167 26.0443 -5.02182 3.07844 -0.0 -0.0 -0.0 0.0 -0.0 6.16291 51.2619 -18.2257 0.797191 0.0336468 0.117705 24.749 -19.293 3.38284 -31.3718 0.0 0.0 0.0 0.0 0.0 
756.551748825 620.173 -1835.51281671 13.0792826518 25.800265632 6.55468332948 -2.04442 -1.10373 -5.10647 -2.03026 -0.776997 -5.16614 -1.94354 0.503086 -5.19987 -1.9811 -0.323301 -5.2141 -6.39364 7.37734 -1.12612 -6.37042 14.4874 0.297324 -0.0 0.0 -0.0 10.8557 19.9431 18.8561 -1.39746 -10.3957 56.0219 2.73175 -53.527 1.37792 -25.9978 -1.59949 2.88489 -0.44352 -4.2453 -4.78939 -0.0 0.0 -0.0 1.50299 25.4508 -0.330841 -28.1567 12.0196 -74.3194 0.757316 20.5636 -0.137381 -84.4201 8.37936 -5.19846 -4.69207 -19.3854 20.7245 0.0 0.0 0.0 -7.00736 -21.4284 -9.75008 -23.1592 0.244761 3.5214 39.7975 23.8255 -5.11169 3.05898 -0.0 -0.0 -0.0 0.0 -0.0 8.56754 51.5548 -19.2889 2.22119 0.0978203 0.326776 25.0357 -18.0726 3.40189 -31.2767 0.0 0.0 0.0 0.0 0.0 
